<svg width="188" height="206" viewBox="0 0 188 206" fill="none" xmlns="http://www.w3.org/2000/svg">
<g clip-path="url(#clip0_20_131)">
<path d="M187.266 70.353C187.266 91.9348 182.593 109.098 173.246 121.843C163.9 134.588 150.56 140.961 133.226 140.961C122.69 140.961 113.82 138.412 106.615 133.314C99.3754 128.216 94.1414 121.418 90.9126 112.922C87.0041 119.889 81.6512 125.276 74.8538 129.083C68.0564 132.923 60.4943 134.843 52.1675 134.843C36.3635 134.843 23.9583 129.015 14.9517 117.357C5.94518 105.733 1.44189 90.0655 1.44189 70.353C1.44189 50.6406 5.94518 35.0066 14.9517 23.451C23.9583 11.8954 36.3635 6.11761 52.1675 6.11761C60.6642 6.11761 68.2773 8.03789 75.0067 11.8784C81.7022 15.685 87.0041 21.0719 90.9126 28.0392C94.1414 19.5425 99.3754 12.7451 106.615 7.64703C113.82 2.549 122.69 -3.05176e-05 133.226 -3.05176e-05C150.56 -3.05176e-05 163.9 6.32155 173.246 18.9647C182.593 31.6419 187.266 48.7713 187.266 70.353ZM80.9715 70.353C80.9715 62.3661 78.6773 55.8236 74.0891 50.7255C69.5008 45.6275 63.5531 43.0785 56.2459 43.0785C48.7688 43.0785 42.7021 45.6275 38.0459 50.7255C33.3557 55.8236 31.0106 62.3661 31.0106 70.353C31.0106 78.34 33.3557 84.8315 38.0459 89.8276C42.7021 94.8577 48.7688 97.3727 56.2459 97.3727C63.5531 97.3727 69.5008 94.8577 74.0891 89.8276C78.6773 84.8315 80.9715 78.34 80.9715 70.353ZM158.207 70.353C158.207 61.0066 155.658 53.4955 150.56 47.8197C145.462 42.1098 138.579 39.2549 129.913 39.2549C121.416 39.2549 114.67 42.1438 109.673 47.9216C104.643 53.6994 102.128 61.1765 102.128 70.353C102.128 79.5295 104.643 87.0067 109.673 92.7844C114.67 98.5622 121.416 101.451 129.913 101.451C138.579 101.451 145.462 98.5962 150.56 92.8864C155.658 87.2106 158.207 79.6995 158.207 70.353Z" fill="#100C08"/>
</g>
<rect width="187.271" height="45" transform="translate(0 160.5)" fill="#100C08"/>
<path d="M16.1953 172.53H25.0153C27.3953 172.53 29.2953 173.16 30.7153 174.42C32.1353 175.66 32.8453 177.39 32.8453 179.61C32.8453 181.89 32.1353 183.64 30.7153 184.86C29.3153 186.08 27.4153 186.69 25.0153 186.69H20.7553V193.5H16.1953V172.53ZM24.3553 182.88C26.9353 182.88 28.2253 181.79 28.2253 179.61C28.2253 178.39 27.8753 177.54 27.1753 177.06C26.4953 176.58 25.5553 176.34 24.3553 176.34H20.7553V182.88H24.3553ZM37.9453 172.53H47.0353C49.4153 172.53 51.2653 173.13 52.5853 174.33C53.9253 175.51 54.5953 177.22 54.5953 179.46C54.5953 181.02 54.2353 182.35 53.5153 183.45C52.7953 184.53 51.7753 185.32 50.4553 185.82L54.4453 193.5H49.7653L46.0753 186.39H42.5053V193.5H37.9453V172.53ZM46.2253 182.58C47.3853 182.58 48.2953 182.33 48.9553 181.83C49.6353 181.33 49.9753 180.54 49.9753 179.46C49.9753 178.32 49.6453 177.52 48.9853 177.06C48.3253 176.58 47.4053 176.34 46.2253 176.34H42.5053V182.58H46.2253ZM70.3153 193.95C68.2153 193.95 66.3053 193.49 64.5853 192.57C62.8853 191.65 61.5453 190.37 60.5653 188.73C59.5853 187.07 59.0953 185.17 59.0953 183.03C59.0953 180.89 59.5853 178.99 60.5653 177.33C61.5453 175.67 62.8853 174.38 64.5853 173.46C66.3053 172.54 68.2153 172.08 70.3153 172.08C72.4153 172.08 74.3053 172.54 75.9853 173.46C77.6853 174.38 79.0253 175.67 80.0053 177.33C80.9853 178.99 81.4753 180.89 81.4753 183.03C81.4753 185.17 80.9853 187.07 80.0053 188.73C79.0253 190.37 77.6853 191.65 75.9853 192.57C74.3053 193.49 72.4153 193.95 70.3153 193.95ZM70.3153 189.75C71.5153 189.75 72.6053 189.48 73.5853 188.94C74.5853 188.38 75.3753 187.6 75.9553 186.6C76.5353 185.58 76.8253 184.39 76.8253 183.03C76.8253 181.69 76.5353 180.52 75.9553 179.52C75.3953 178.5 74.6153 177.72 73.6153 177.18C72.6353 176.62 71.5353 176.34 70.3153 176.34C69.0753 176.34 67.9553 176.62 66.9553 177.18C65.9753 177.72 65.1953 178.5 64.6153 179.52C64.0353 180.52 63.7453 181.69 63.7453 183.03C63.7453 184.39 64.0353 185.58 64.6153 186.6C65.1953 187.6 65.9853 188.38 66.9853 188.94C67.9853 189.48 69.0953 189.75 70.3153 189.75ZM86.9824 172.53H97.2724C99.2524 172.53 100.802 173.02 101.922 174C103.042 174.98 103.602 176.4 103.602 178.26C103.602 179.2 103.382 180.06 102.942 180.84C102.502 181.6 101.902 182.19 101.142 182.61C102.182 182.99 102.962 183.57 103.482 184.35C104.002 185.11 104.262 186.11 104.262 187.35C104.262 188.61 103.972 189.71 103.392 190.65C102.832 191.57 102.052 192.28 101.052 192.78C100.072 193.26 98.9824 193.5 97.7824 193.5H86.9824V172.53ZM96.4024 181.05C97.2024 181.05 97.8324 180.85 98.2924 180.45C98.7524 180.05 98.9824 179.41 98.9824 178.53C98.9824 177.57 98.7524 176.91 98.2924 176.55C97.8524 176.19 97.1724 176.01 96.2524 176.01H91.5424V181.05H96.4024ZM96.6724 190.02C97.6524 190.02 98.3924 189.83 98.8924 189.45C99.4124 189.05 99.6724 188.36 99.6724 187.38C99.6724 186.38 99.4024 185.66 98.8624 185.22C98.3424 184.78 97.5624 184.56 96.5224 184.56H91.5424V190.02H96.6724ZM109.816 172.53H114.376V189.69H123.976V193.5H109.816V172.53ZM128.49 172.53H143.04V176.34H133.05V181.2H140.4V184.86H133.05V189.69H143.04V193.5H128.49V172.53ZM148.248 172.53H152.748L159.198 186.57L165.678 172.53H170.148V193.5H165.798V181.59L160.248 193.5H158.148L152.628 181.59V193.5H148.248V172.53Z" fill="#EF233C"/>
<defs>
<clipPath id="clip0_20_131">
<rect width="140.961" height="185.824" fill="white" transform="matrix(0 -1 1 0 1.44189 140.961)"/>
</clipPath>
</defs>
</svg>
